<svg width="39" height="39" viewBox="0 0 39 39" fill="none" xmlns="http://www.w3.org/2000/svg">
<path d="M19.5 0C8.73041 0 0 8.73041 0 19.5C0 30.2696 8.73041 39 19.5 39C30.2696 39 39 30.2696 39 19.5C39 8.73041 30.2696 0 19.5 0ZM26.9393 9.93054L24.2422 9.93173C22.1273 9.93173 21.7183 10.9368 21.7183 12.4114V15.663H26.7618L26.7594 20.756H21.7187V33.8257H16.4582V20.756H12.0607V15.663H16.4582V11.9071C16.4582 7.54825 19.1214 5.17433 23.0094 5.17433L26.9397 5.18032V9.93054H26.9393Z" fill="black"/>
</svg>
