<svg width="39" height="39" viewBox="0 0 39 39" fill="none" xmlns="http://www.w3.org/2000/svg">
<path d="M38.9617 11.4661C38.8703 9.39389 38.5352 7.96925 38.0552 6.73479C37.56 5.42444 36.7981 4.25128 35.7999 3.27603C34.8247 2.2856 33.6438 1.516 32.3486 1.02852C31.107 0.548485 29.6898 0.213382 27.6176 0.122018C25.5299 0.0229155 24.8671 0 19.5722 0C14.2772 0 13.6144 0.0229155 11.5345 0.11428C9.46224 0.205645 8.03761 0.541045 6.80344 1.02078C5.49279 1.516 4.31964 2.27787 3.34439 3.27603C2.35396 4.25128 1.58465 5.43218 1.09688 6.72735C0.616844 7.96925 0.281742 9.38615 0.190377 11.4584C0.0912749 13.5461 0.0683594 14.2088 0.0683594 19.5038C0.0683594 24.7988 0.0912749 25.4616 0.182639 27.5415C0.274004 29.6137 0.609404 31.0384 1.08944 32.2728C1.58465 33.5832 2.35396 34.7563 3.34439 35.7316C4.31964 36.722 5.50053 37.4916 6.79571 37.9791C8.03761 38.4591 9.4545 38.7942 11.527 38.8856C13.6067 38.9773 14.2697 38.9999 19.5647 38.9999C24.8597 38.9999 25.5225 38.9773 27.6024 38.8856C29.6746 38.7942 31.0993 38.4591 32.3334 37.9791C34.9544 36.9658 37.0266 34.8935 38.04 32.2728C38.5197 31.0309 38.8551 29.6137 38.9465 27.5415C39.0379 25.4616 39.0608 24.7988 39.0608 19.5038C39.0608 14.2088 39.053 13.5461 38.9617 11.4661ZM35.4496 27.3891C35.3657 29.2938 35.0458 30.3223 34.7791 31.008C34.1238 32.707 32.7754 34.0555 31.0763 34.7108C30.3907 34.9775 29.3547 35.2974 27.4575 35.381C25.4004 35.4727 24.7835 35.4953 19.5799 35.4953C14.3763 35.4953 13.7516 35.4727 11.702 35.381C9.79734 35.2974 8.76882 34.9775 8.08314 34.7108C7.23765 34.3983 6.46804 33.9031 5.84337 33.2555C5.19578 32.6231 4.70057 31.8612 4.38809 31.0157C4.12143 30.3301 3.80151 29.2938 3.71788 27.3969C3.62622 25.3398 3.6036 24.7226 3.6036 19.519C3.6036 14.3154 3.62622 13.6907 3.71788 11.6414C3.80151 9.73673 4.12143 8.70821 4.38809 8.02253C4.70057 7.17673 5.19578 6.40743 5.85111 5.78246C6.48322 5.13487 7.24509 4.63965 8.09088 4.32747C8.77656 4.06081 9.81282 3.74089 11.7097 3.65696C13.7668 3.5656 14.384 3.54268 19.5873 3.54268C24.7987 3.54268 25.4156 3.5656 27.4652 3.65696C29.3699 3.74089 30.3984 4.06081 31.0841 4.32747C31.9296 4.63965 32.6992 5.13487 33.3239 5.78246C33.9714 6.41487 34.4667 7.17673 34.7791 8.02253C35.0458 8.70821 35.3657 9.74417 35.4496 11.6414C35.541 13.6984 35.5639 14.3154 35.5639 19.519C35.5639 24.7226 35.541 25.3321 35.4496 27.3891Z" fill="black"/>
</svg>
